<svg width="38" height="38" viewBox="0 0 38 38" fill="none" xmlns="http://www.w3.org/2000/svg">
<rect width="38" height="38" rx="4" fill="#09A2F9"/>
<path d="M8.63687 28.0001H12.453V18.7315L7 14.637V26.3632C7 27.2707 7.73453 28.0001 8.63687 28.0001Z" fill="#0A0917"/>
<path d="M25.547 28.0001H29.3631C30.2655 28.0001 31 27.2656 31 26.3632V14.637L25.547 18.7263V28.0001Z" fill="#0A0917"/>
<path d="M25.547 11.637V18.7263L31 14.637V12.4531C31 10.4323 28.6914 9.27541 27.0737 10.4899L25.547 11.637Z" fill="#0A0917"/>
<path d="M12.453 18.7315V11.637L19 16.5476L25.547 11.637V18.7315L19 23.637L12.453 18.7315Z" fill="#0A0917"/>
<path d="M7 12.4577V14.6416L12.453 18.731V11.6369L10.9262 10.4946C9.30859 9.28004 7 10.4369 7 12.4577Z" fill="#0A0917"/>
</svg>
