<svg width="38" height="38" viewBox="0 0 38 38" fill="none" xmlns="http://www.w3.org/2000/svg">
<rect width="38" height="38" rx="4" fill="#09A2F9"/>
<g clip-path="url(#clip0_401_347)">
<path d="M23.8503 7H14.1497C10.2074 7 7 10.2074 7 14.1497V23.8503C7 27.7926 10.2074 31 14.1497 31H23.8503C27.7926 31 31 27.7926 31 23.8503V14.1497C31 10.2074 27.7926 7 23.8503 7ZM28.5856 23.8503C28.5856 26.4655 26.4655 28.5856 23.8503 28.5856H14.1497C11.5345 28.5856 9.4144 26.4655 9.4144 23.8503V14.1497C9.4144 11.5345 11.5345 9.4144 14.1497 9.4144H23.8503C26.4655 9.4144 28.5856 11.5345 28.5856 14.1497V23.8503Z" fill="#0A0917"/>
<path d="M19 12.7927C15.5773 12.7927 12.7927 15.5773 12.7927 18.9999C12.7927 22.4226 15.5773 25.2072 19 25.2072C22.4227 25.2072 25.2073 22.4226 25.2073 18.9999C25.2073 15.5772 22.4227 12.7927 19 12.7927ZM19 22.7928C16.9052 22.7928 15.2071 21.0947 15.2071 19C15.2071 16.9052 16.9053 15.2071 19 15.2071C21.0948 15.2071 22.7929 16.9052 22.7929 19C22.7929 21.0947 21.0947 22.7928 19 22.7928Z" fill="#0A0917"/>
<path d="M25.2193 14.3268C26.0407 14.3268 26.7067 13.6609 26.7067 12.8394C26.7067 12.018 26.0407 11.3521 25.2193 11.3521C24.3978 11.3521 23.7319 12.018 23.7319 12.8394C23.7319 13.6609 24.3978 14.3268 25.2193 14.3268Z" fill="#0A0917"/>
</g>
<defs>
<clipPath id="clip0_401_347">
<rect width="24" height="24" fill="white" transform="translate(7 7)"/>
</clipPath>
</defs>
</svg>
