<svg width="38" height="38" viewBox="0 0 38 38" fill="none" xmlns="http://www.w3.org/2000/svg">
<rect width="38" height="38" rx="4" fill="#09A2F9"/>
<path d="M26.0155 10.5085H11.9845C9.23163 10.5085 7 12.7402 7 15.493V22.5071C7 25.2599 9.23163 27.4916 11.9845 27.4916H26.0155C28.7684 27.4916 31 25.2599 31 22.5071V15.493C31 12.7402 28.7684 10.5085 26.0155 10.5085ZM22.6445 19.3413L16.0818 22.4713C15.9069 22.5547 15.7049 22.4273 15.7049 22.2335V15.7778C15.7049 15.5813 15.9122 15.454 16.0874 15.5428L22.6502 18.8685C22.8453 18.9674 22.8419 19.2472 22.6445 19.3413Z" fill="#0A0917"/>
</svg>
